<?xml version="1.0" encoding="UTF-8"?>
<svg id="Layer_1" data-name="Layer 1" xmlns="http://www.w3.org/2000/svg" version="1.1" viewBox="0 0 140 55">
  <defs>
    <style>
      .cls-1 {
        fill: #003400;
        stroke-width: 0px;
      }
    </style>
  </defs>
  <path class="cls-1" d="M2.5,32.2v-1c0-.5.4-.9.8-.9h0c1-.2,1.7-.7,1.7-1.7l.9-18.7c0-.8-.2-1.1-1-1.3s-.9-.4-.9-1v-.8c0-.7.4-.9,1.1-.8h6.1c.4-.1.9.1,1,.6,0,0,0,0,0,0l5.1,16.9c.1.4.5.4.7,0l5.6-16.9c0-.4.5-.7,1-.6,0,0,0,0,0,0h6c.7,0,1.1.2,1.1.8v.8c0,.6-.2.8-.9,1s-1,.5-1,1.3l.9,18.7c0,.9.7,1.7,1.7,1.7,0,0,0,0,0,0,.6,0,.9.4.9.8v1.1c0,.5-.2.8-.7.8h-9.1c-.5,0-.9-.3-.9-.8v-1.1c0-.5.4-.8.8-.8,0,0,0,0,0,0,.9,0,1.7-.7,1.7-1.7,0,0,0,0,0,0l-.5-14.2c0-.5-.5-.5-.6,0l-6.1,18.2c-.1.4-.5.6-.9.6h-1.2c-.4,0-.7-.3-.9-.6l-5.7-18.4c-.1-.4-.7-.4-.7,0l-.5,14.5c-.2.8.4,1.6,1.2,1.8,0,0,.1,0,.2,0,.5,0,.9.4.9.9,0,0,0,0,0,0v1c0,.5-.5.8-.9.8H3.4c-.5,0-.9-.3-.9-.8Z"/>
  <path class="cls-1" d="M34.3,23.4c0-5.6,3.9-10.1,9.6-10.1,2.2,0,4.4.9,5.8,2.6.2.2.5.2.7,0l2.3-2c.2-.2.4-.2.6-.2l.8.4c.2,0,.3.3.3.5l-.5,3.2v9.6c0,.9.6,1.6,1.5,1.7,0,0,0,0,0,0,.4,0,.8.4.8.8v.5c0,.3-.2.6-.5.7l-3,.8-2.5,1.6c-.3.2-.7.1-.9,0l-.2-.2c-.2-.1-.3-.3-.2-.6l.2-.9c0-.4-.3-.4-.5-.2-1.4,1.4-3.4,2.2-5.4,2-4.6,0-8.9-3.8-8.9-10.1ZM49.1,23.4c0-2.8-1.2-7-4.8-7s-4.9,4.3-4.9,7,.9,7.2,4.9,7.2,4.8-4.3,4.8-7.2Z"/>
  <path class="cls-1" d="M57.8,32.2v-.5c0-.4.4-.8.8-.8.9,0,1.5-.7,1.6-1.5,0,0,0,0,0-.1v-9.5c0-.9-.6-1.6-1.5-1.7,0,0,0,0,0,0-.5,0-.8-.4-.8-.8v-.5c0-.3.2-.6.5-.7l3-.8,2.5-1.6c.3-.2.7-.2.9,0l.2.2c.2.1.3.3.2.6l-.2,1c0,.2.1.3.3.3,0,0,.2,0,.3-.1,1.5-1.6,3.6-2.5,5.8-2.5,4,0,6.8,2.2,6.8,6.6v9.3c0,.8.6,1.6,1.4,1.7,0,0,0,0,.1,0,.4,0,.8.3.8.8v.5c0,.4-.4.8-.8.8h-8.2c-.4,0-.8-.3-.8-.8v-.5c0-.4.3-.8.8-.8.9,0,1.5-.7,1.6-1.5,0,0,0,0,0-.1v-9c.2-1.8-1.1-3.5-3-3.7-.2,0-.4,0-.7,0-2.4,0-4.3,1.9-4.3,5.1v7.7c0,.8.6,1.6,1.4,1.7,0,0,0,0,.1,0,.4,0,.8.4.8.8v.5c0,.4-.3.8-.8.8h-8.2c-.4,0-.8-.3-.8-.8,0,0,0,0,0,0Z"/>
  <path class="cls-1" d="M81.4,23.4c0-5.6,3.9-10.1,9.6-10.1,1.6,0,3.2.5,4.5,1.4.1.1.3,0,.4,0,0,0,0-.1,0-.2v-3.2c0-.9-.6-1.6-1.4-1.7,0,0,0,0,0,0-.5,0-.8-.3-.8-.8v-.5c0-.3.2-.6.5-.7l3.4-.8,2.5-1.5c.3-.2.7-.1.9,0l.2.2c.2.2.3.4.2.7l-.4,3v18.3c0,.9.6,1.6,1.5,1.7,0,0,0,0,0,0,.4,0,.8.3.8.8v.5c0,.3-.2.6-.6.7l-3,.8-2.5,1.6c-.3.2-.7.1-.9,0l-.2-.2c-.2-.1-.3-.3-.2-.6l.2-.9c0-.5-.2-.4-.4-.3-1.4,1.4-3.4,2.1-5.4,2-4.6,0-8.9-3.8-8.9-10.1ZM96.2,23.4c0-2.8-1.2-7-4.8-7s-4.9,4.3-4.9,7,.9,7.2,4.9,7.2,4.8-4.3,4.8-7.2Z"/>
  <path class="cls-1" d="M104.2,23.4c0-5.6,3.9-10.1,9.6-10.1,2.2,0,4.4.9,5.8,2.6.2.2.5.2.7,0l2.3-2c.2-.2.4-.2.6-.2l.8.4c.2,0,.3.3.3.5l-.5,3.2v9.6c0,.9.6,1.7,1.4,1.7,0,0,0,0,.1,0,.4,0,.8.3.8.8v.5c0,.3-.2.6-.5.7l-3,.8-2.5,1.6c-.3.2-.7.1-.9,0l-.2-.2c-.2-.1-.3-.3-.2-.6l.2-.9c0-.4-.3-.4-.5-.2-1.4,1.4-3.4,2.2-5.3,2-4.6,0-8.9-3.8-8.9-10.1ZM119,23.4c0-2.8-1.2-7-4.8-7s-4.9,4.3-4.9,7,.9,7.2,4.9,7.2,4.8-4.3,4.8-7.2Z"/>
  <path class="cls-1" d="M135.2,17.6v11.6c0,.8.5,1.6,1.4,1.7,0,0,.1,0,.2,0,.4,0,.8.4.8.8v.5c0,.4-.3.8-.8.8h-8.2c-.4,0-.8-.3-.8-.8v-.5c0-.4.3-.8.8-.8.8,0,1.5-.6,1.6-1.5,0,0,0-.1,0-.2v-9.5c0-.9-.6-1.6-1.5-1.7,0,0,0,0,0,0-.5,0-.8-.4-.8-.8v-.5c0-.3.2-.6.5-.7l3.4-.8,2.5-1.6c.3-.2.7-.1.9,0h.2c.2.3.3.6.2.8l-.4,2.9ZM129.4,8c0,1.8,1.4,3.2,3.2,3.2,1.8,0,3.2-1.4,3.2-3.2,0-1.8-1.5-3.2-3.2-3.3-1.8,0-3.2,1.5-3.2,3.3Z"/>
  <path class="cls-1" d="M16.7,40.1v.4c0,.2-.1.3-.3.3-.3,0-.6.3-.7.6l-2.8,8c0,.1-.2.2-.3.2h-.5c-.1,0-.3,0-.3-.2l-2-6c0,0-.1-.1-.2,0,0,0,0,0,0,0l-2.1,6c0,.1-.2.2-.3.2h-.5c-.1,0-.2,0-.3-.2l-2.8-7.9c-.1-.4-.4-.6-.8-.7-.2,0-.3-.2-.3-.3v-.4c0-.2.2-.3.4-.3h1.6c0,.1,1.5,0,1.5,0,.3,0,.4,0,.4.3v.4c0,.2-.1.3-.3.3-.4,0-.6.2-.5.7l1.5,4.4c0,0,0,.1.1.1s.1,0,.1-.1l2-5.7c0-.1.2-.2.3-.2h.7c.1,0,.3,0,.3.2l1.9,5.7c0,0,0,.1.1.1s.1,0,.1-.1l1.5-4.3c.2-.5,0-.8-.4-.8-.2,0-.3,0-.4-.2,0,0,0,0,0-.1v-.3c0-.2.2-.3.4-.3h1.2c0,.1,1.3,0,1.3,0,.2,0,.3,0,.3.3Z"/>
  <path class="cls-1" d="M17.9,40.8h-.2c-.2-.1-.3-.2-.3-.4v-.3c0-.2.1-.3.4-.3l1.6.2,1.7-.2c.3,0,.4.1.4.3v.3c0,.2-.1.3-.3.3h-.3c-.4.2-.6.5-.5.9v6.4c0,.3.2.5.6.6h.3c.2,0,.3.2.3.3v.3c0,.2-.1.3-.3.3,0,0,0,0,0,0h-3.7c-.2,0-.3-.1-.3-.3,0,0,0,0,0,0v-.3c0-.2.1-.3.3-.3h.3c.4,0,.6-.2.6-.6v-6.4c0-.4-.2-.7-.6-.8Z"/>
  <path class="cls-1" d="M22.5,49.3v-.3c0-.2.1-.3.3-.3h.3c.4,0,.6-.2.6-.6v-6.5c0-.4-.2-.7-.6-.8h-.2c-.2,0-.3-.2-.3-.4,0,0,0,0,0,0v-.3c0-.2.1-.3.4-.3l1.7.2,1.6-.2c.3,0,.4.1.4.3v.3c0,.2-.1.3-.3.3h-.3c-.4.2-.6.5-.5.9v6.4c0,.4.2.6.6.6h.8c1.2,0,1.8-.3,2.5-1.7.1-.2.2-.3.5-.2h.3c.2.2.2.4.2.6l-.8,2c0,.2-.3.4-.6.4h-6.2c-.2,0-.3-.2-.3-.3Z"/>
  <path class="cls-1" d="M30.9,49.3v-.3c0-.2.1-.3.3-.3h.3c.4,0,.6-.2.6-.6v-6.7c0-.3-.2-.5-.6-.6h-.3c-.2,0-.3-.1-.3-.3,0,0,0,0,0,0v-.3c0-.2.1-.3.3-.3,0,0,0,0,0,0h3.7c3.1,0,5.3,1.8,5.3,4.9s-2.2,4.9-5.3,4.9h-3.7c-.2,0-.3-.1-.3-.3,0,0,0,0,0,0ZM35,48.6c2.2,0,3.3-1.8,3.3-3.9s-1.1-3.9-3.3-3.9h-.3c-.3,0-.6.3-.6.6v6.6c0,.3.3.5.6.6h.3Z"/>
  <path class="cls-1" d="M40.9,49.3v-.3c0-.2.1-.3.3-.3h.3c.4,0,.6-.2.6-.6v-6.5c0-.4-.2-.7-.5-.8h-.3c-.2-.1-.3-.2-.3-.4v-.3c0-.2.1-.3.4-.3l1.7.2,1.6-.2c.3,0,.4.1.4.3v.3c0,.2-.1.3-.3.3h-.2c-.4.1-.6.5-.6.9v6.4c0,.4.2.6.6.6h.8c1.2,0,1.8-.3,2.5-1.7.1-.2.3-.3.5-.2h.3c.2.2.2.4.2.6l-.8,2c0,.2-.3.4-.6.4h-6.3c-.2,0-.3-.1-.3-.3,0,0,0,0,0,0Z"/>
  <path class="cls-1" d="M49.9,40.8h-.2c-.2,0-.3-.2-.3-.4v-.3c0-.2.1-.3.4-.3l1.6.2,1.7-.2c.3,0,.4.1.4.3v.3c0,.2-.1.3-.3.3h-.3c-.4.2-.6.5-.5.9v6.4c0,.3.2.5.6.6h.3c.2,0,.3.2.3.3v.3c0,.2-.1.3-.3.3,0,0,0,0,0,0h-3.7c-.2,0-.3-.1-.3-.3,0,0,0,0,0,0v-.3c0-.2.1-.3.3-.3h.3c.4,0,.6-.2.6-.6v-6.4c0-.4-.2-.7-.6-.8Z"/>
  <path class="cls-1" d="M62.1,40.5l-.4.6-.2.7c0,.2-.2.3-.3.3h-.2c-.2,0-.3-.1-.4-.3-.1-.7-.6-.9-1.3-.9h-1.2c-.3,0-.6.3-.6.6v2.6c0,0,0,.1.1.1,0,0,0,0,0,0h1.3c.3,0,.5-.3.6-.6,0-.2.2-.3.4-.3h0c.2,0,.4.1.4.3,0,0,0,0,0,0v.9c-.1,0,0,1,0,1,0,.2-.1.4-.3.4,0,0,0,0,0,0h0c-.2,0-.4,0-.4-.3,0-.3-.3-.5-.6-.6h-1.3c0,0-.1,0-.1.1,0,0,0,0,0,0v2.7c0,.3.2.5.6.6h.3c.2,0,.3.2.3.3v.3c0,.2-.1.3-.3.3,0,0,0,0,0,0h-3.7c-.2,0-.3-.1-.3-.3v-.3c0-.2.1-.3.3-.3h.3c.4,0,.6-.2.6-.6v-6.7c0-.3-.2-.5-.6-.6h-.3c-.2,0-.3-.1-.3-.3h0v-.3c0-.2.1-.3.3-.3,0,0,0,0,0,0h7c.5,0,.6.3.4.7Z"/>
  <path class="cls-1" d="M70.9,47.1l-.2,2.2c0,.2-.2.4-.4.3h-7c-.2,0-.3-.1-.3-.3,0,0,0,0,0,0v-.3c0-.2.1-.3.3-.3h.3c.4,0,.6-.2.6-.6v-6.7c0-.3-.2-.5-.6-.6h-.3c-.2,0-.3-.2-.3-.3v-.3c0-.2.1-.3.3-.3h6.8c.5,0,.6.4.4.7l-.4.6-.2.7c0,.2-.2.3-.3.3h-.1c-.2,0-.3-.1-.4-.3-.1-.6-.7-1-1.3-.9h-1c-.3,0-.5.3-.6.6v2.5c0,0,0,.1.1.1,0,0,0,0,0,0h1.4c.3,0,.5-.3.6-.6,0-.2.2-.3.4-.3h0c.2,0,.4.1.4.3,0,0,0,0,0,0v.9c-.1,0,0,1,0,1,0,.2-.1.4-.3.4,0,0,0,0,0,0h0c-.2,0-.4,0-.4-.3,0-.3-.3-.5-.6-.6h-1.4c0,0-.1,0-.1.1,0,0,0,0,0,0v2.8c0,.3.3.5.6.6h1.3c1,.1,1.9-.5,2-1.5,0,0,0,0,0,0,0-.1.1-.2.3-.2h.2c.2,0,.3.1.3.3,0,0,0,0,0,0Z"/>
  <path class="cls-1" d="M75.9,49.3v-.3c0-.2.1-.3.3-.3h.3c.4,0,.6-.2.6-.6v-6.7c0-.3-.2-.5-.6-.6h-.3c-.2,0-.3-.2-.3-.3v-.3c0-.2.1-.3.3-.3,0,0,0,0,0,0h1.8c0,.1,2.1,0,2.1,0,2.2-.1,3.6,1,3.6,2.8,0,1.3-1,2.4-2.3,2.6-.1,0-.2.2,0,.2.3.2.6.5.8.8l1.3,2c0,.2.3.3.5.3h.3c.2,0,.3.1.3.3v.4c0,.2-.1.3-.3.3h-2.2c-.2,0-.3-.1-.4-.3l-1.7-3.3c-.1-.3-.5-.6-.8-.5,0,0-.2,0-.2.1v2.5c0,.3.2.5.6.6h.3c.2,0,.3.2.3.3v.3c0,.2-.1.3-.3.3,0,0,0,0,0,0h-3.6c-.2,0-.3-.1-.3-.3ZM80,44.6c1.3,0,1.8-.8,1.8-2s-.5-2-1.8-1.9h-.4c-.3,0-.5.3-.6.6v3.2c0,0,0,.1.1.1h.8Z"/>
  <path class="cls-1" d="M93.4,47.1l-.2,2.2c0,.2-.2.4-.4.3h-7c-.2,0-.3-.1-.3-.3v-.3c0-.2.1-.3.3-.3h.3c.4,0,.6-.2.6-.6v-6.7c0-.3-.2-.5-.6-.6h-.3c-.2,0-.3-.1-.3-.3v-.3c0-.2.1-.3.3-.3,0,0,0,0,0,0h6.8c.5,0,.6.4.4.7l-.4.6-.2.7c0,.2-.2.3-.3.3h-.1c-.2,0-.3-.1-.4-.3-.1-.6-.7-1-1.3-.9h-1c-.3,0-.5.3-.6.6v2.5c0,0,0,.1.1.1,0,0,0,0,0,0h1.4c.3,0,.5-.3.6-.6,0-.2.2-.3.4-.3h0c.2,0,.4.1.4.3,0,0,0,0,0,0v.9c-.1,0,0,1,0,1,0,.2-.1.4-.3.4,0,0,0,0,0,0h0c-.2,0-.4,0-.4-.3,0-.3-.3-.5-.6-.6h-1.4c0,0-.1,0-.1.1,0,0,0,0,0,0v2.8c0,.3.3.5.6.6h1.3c1,.1,1.9-.5,2-1.5,0,0,0,0,0,0,0-.1.1-.2.3-.2h.2c.2,0,.3.1.3.3,0,0,0,0,0,0Z"/>
  <path class="cls-1" d="M99.1,42.2c0-.9-.8-1.6-1.6-1.5,0,0,0,0,0,0-.7,0-1.4.5-1.4,1.2,0,0,0,0,0,.1,0,.8.7,1.2,2.1,1.8s2.4,1.4,2.4,3c0,1.7-1.3,3-3,3,0,0-.2,0-.3,0-1,0-2-.3-2.8-.8-.1,0-.2-.3-.2-.4v-1.8c0-.1.2-.3.4-.3,0,0,0,0,0,0h.3c.1,0,.3.1.3.2.2,1.3.8,2,1.8,2,.8,0,1.5-.6,1.5-1.4,0,0,0-.2,0-.3,0-1.1-.7-1.5-1.8-2-1.5-.7-2.4-1.5-2.4-2.8,0-1.5,1.3-2.7,2.8-2.7,0,0,.1,0,.2,0,.8,0,1.6.2,2.3.6.1,0,.2.2.2.4v.6c0,0,0,.9,0,.9,0,.1,0,.3-.2.3,0,0,0,0,0,0h-.1c-.2,0-.3-.1-.3-.3,0,0,0,0,0,0Z"/>
  <path class="cls-1" d="M109.2,47.1l-.2,2.2c0,.2-.2.4-.4.3h-7c-.2,0-.3-.1-.3-.3,0,0,0,0,0,0v-.3c0-.2.1-.3.3-.3h.3c.4,0,.6-.2.6-.6v-6.7c0-.3-.2-.5-.6-.6h-.3c-.2,0-.3-.2-.3-.3v-.3c0-.2.1-.3.3-.3,0,0,0,0,0,0h6.8c.5,0,.6.4.3.7l-.4.6-.2.7c0,.2-.2.3-.3.3h-.2c-.2,0-.3-.1-.4-.3-.1-.7-.6-.9-1.3-.9h-1c-.3,0-.6.3-.6.6v2.5c0,0,0,.1.1.1,0,0,0,0,0,0h1.4c.3,0,.5-.3.6-.6,0-.2.2-.3.4-.3h0c.2,0,.4.1.4.3,0,0,0,0,0,0v.9c-.1,0,0,1,0,1,0,.2-.1.4-.3.4,0,0,0,0,0,0h0c-.2,0-.4,0-.4-.3,0-.3-.3-.5-.6-.6h-1.4c0,0-.1,0-.1.1,0,0,0,0,0,0v2.8c0,.3.3.5.6.6h1.3c1,.1,1.9-.5,2-1.5,0,0,0,0,0,0,0-.1.1-.2.3-.2h.2c.2,0,.3,0,.4.2,0,0,0,0,0,.1Z"/>
  <path class="cls-1" d="M110,49.3v-.3c0-.2.1-.3.3-.3h.3c.4,0,.6-.2.6-.6v-6.7c0-.3-.2-.5-.6-.6h-.3c-.2,0-.3-.2-.3-.3v-.3c0-.2.1-.3.3-.3,0,0,0,0,0,0h1.8c0,.1,2.1,0,2.1,0,2.2-.1,3.6,1,3.6,2.8,0,1.3-1,2.4-2.3,2.6-.2,0-.2.2,0,.2.4.2.6.5.8.8l1.3,2c0,.2.3.3.5.3h.3c.2,0,.3.1.3.3v.4c0,.2-.1.3-.3.3h-2.2c-.2,0-.3-.1-.4-.3l-1.7-3.3c-.1-.3-.5-.6-.8-.5,0,0-.1,0-.1.1v2.5c0,.3.2.5.6.6h.3c.2,0,.3.2.3.3v.3c0,.2-.1.3-.3.3h-3.6c-.2,0-.3-.1-.3-.3,0,0,0,0,0,0ZM114.1,44.6c1.3,0,1.8-.8,1.8-2s-.5-2-1.8-1.9h-.4c-.3,0-.5.3-.6.6v3.2c0,0,0,.1.1.1h.8Z"/>
  <path class="cls-1" d="M128.9,40.1v.3c0,.2,0,.3-.2.3-.4,0-.8.3-1,.7l-3.6,7.9c0,.1-.2.2-.4.2h-.3c-.2,0-.3,0-.4-.2l-3.5-7.9c-.2-.3-.5-.6-.8-.7h-.3c-.1-.1-.3-.2-.2-.4v-.3c0-.2.1-.3.4-.3l1.7.2,1.9-.2c.3,0,.4.1.4.3v.3c0,.2-.1.3-.3.3h-.3c-.3.2-.5.4-.3.8l2.1,5c0,0,.1.1.2,0,0,0,0,0,0,0l2.3-5.1c.2-.5-.1-.6-.6-.7-.2,0-.3-.2-.2-.3v-.3c0-.2.1-.3.3-.3,0,0,0,0,0,0h1.4c0,.1,1.3,0,1.3,0,.2,0,.3.1.3.3,0,0,0,0,0,0Z"/>
  <path class="cls-1" d="M137.5,47.1l-.2,2.2c0,.2-.2.4-.4.3h-7c-.2,0-.3-.1-.3-.3v-.3c0-.2.1-.3.3-.3h.3c.4,0,.6-.2.6-.6v-6.7c0-.3-.2-.5-.6-.6h-.3c-.2,0-.3-.2-.3-.3v-.3c0-.2.1-.3.3-.3,0,0,0,0,0,0h6.8c.5,0,.6.4.4.7l-.4.6-.2.7c0,.2-.2.3-.3.3h-.1c-.2,0-.3-.1-.4-.3-.1-.7-.6-.9-1.3-.9h-1c-.3,0-.5.3-.6.6v2.5c0,0,0,.1.1.1,0,0,0,0,0,0h1.4c.3,0,.5-.3.6-.6,0-.2.2-.3.4-.3h0c.2,0,.4.1.4.3,0,0,0,0,0,0v.9c-.1,0,0,1,0,1,0,.2-.1.4-.3.4,0,0,0,0,0,0h0c-.2,0-.4,0-.4-.3,0-.3-.3-.5-.6-.6h-1.4c0,0-.1,0-.1.1,0,0,0,0,0,0v2.8c0,.3.3.5.6.6h1.3c1,.1,1.9-.5,2-1.5,0,0,0,0,0,0,0-.1.1-.2.3-.2h.2c.2,0,.3,0,.3.3,0,0,0,0,0,0Z"/>
</svg>