<svg xmlns="http://www.w3.org/2000/svg" id="Layer_1" width="150" height="150" data-name="Layer 1" viewBox="0 0 200 200"><defs><style>.cls-2,.cls-3{stroke-width:0}.cls-2{fill:#f18a00}.cls-3{fill:#fff}</style></defs><rect width="200" height="200" rx="11.34" ry="11.34" style="stroke-width:0;fill:#231f20"/><path d="M36.41 105.66c0 .64-.49 1.15-1.1 1.15s-1.1-.52-1.1-1.15.49-1.15 1.1-1.15 1.1.52 1.1 1.15M86.64 150.75c0 .83-.64 1.5-1.43 1.5s-1.43-.67-1.43-1.5.64-1.5 1.43-1.5 1.43.67 1.43 1.5M86.96 89.1l9.03 9.19 4.67-9.19H86.95Zm9.79 9.96 11.76 11.96v-10.69l13.46-11.24h-13.46V75.93L96.75 99.05Zm-11.29 22.18-.9-.5 10.92-21.47-11.04-11.23h16.75l7.37-14.48.96.25v14.23h15.35l-15.35 12.81v12.7l-13.28-13.5-10.79 21.2Z" class="cls-2"/><path d="m101.97 88.83-.9-.49 17.27-34.26.9.5-17.27 34.25z" class="cls-2"/><path d="M119.7 54.62c0 .61-.47 1.11-1.06 1.11s-1.06-.5-1.06-1.11.48-1.11 1.06-1.11 1.06.5 1.06 1.11M21.01 185.11c0 .61-.47 1.11-1.06 1.11s-1.06-.5-1.06-1.11.48-1.11 1.06-1.11 1.06.5 1.06 1.11M110.51 73.81c0 .8-.62 1.44-1.38 1.44s-1.38-.65-1.38-1.44.62-1.44 1.38-1.44 1.38.65 1.38 1.44M97.15 99.09c0 .61-.48 1.11-1.06 1.11s-1.06-.5-1.06-1.11.47-1.11 1.06-1.11 1.06.5 1.06 1.11M86.08 105.86c0 .61-.47 1.11-1.06 1.11s-1.06-.5-1.06-1.11.48-1.11 1.06-1.11 1.06.5 1.06 1.11M103.86 105.86c0 .61-.48 1.11-1.06 1.11s-1.06-.5-1.06-1.11.48-1.11 1.06-1.11 1.06.5 1.06 1.11M85.95 88.32c0 .61-.47 1.11-1.06 1.11s-1.06-.5-1.06-1.11.48-1.11 1.06-1.11 1.06.5 1.06 1.11M69.07 105.86c0 .8-.62 1.44-1.38 1.44s-1.38-.65-1.38-1.44.62-1.44 1.38-1.44 1.38.65 1.38 1.44M86.41 121.73c0 .8-.62 1.44-1.38 1.44s-1.38-.65-1.38-1.44.62-1.44 1.38-1.44 1.38.65 1.38 1.44M57.99 124.35c0 .8-.62 1.44-1.38 1.44s-1.38-.65-1.38-1.44.62-1.44 1.38-1.44 1.38.65 1.38 1.44M125.38 88.24c0 .64-.49 1.15-1.1 1.15s-1.1-.51-1.1-1.15.49-1.15 1.1-1.15 1.1.52 1.1 1.15M102.45 88.63c0 .52-.4.93-.89.93s-.89-.42-.89-.93.4-.93.89-.93.89.42.89.93M109.96 88.63c0 .52-.4.93-.89.93s-.89-.42-.89-.93.4-.93.89-.93.89.42.89.93M110.02 100.5c0 .52-.4.93-.89.93s-.89-.42-.89-.93.4-.93.89-.93.89.42.89.93M110.02 113.12c0 .52-.4.93-.89.93s-.89-.42-.89-.93.4-.93.89-.93.89.42.89.93" class="cls-2"/><path d="M84.51 120.73v28.36L57.28 124.3l27-44.7v26.82h16.97l-16.73 14.32Zm-28.01 2.86-18.87-17.18h29.24L56.5 123.59Zm46.73-17.73v-.52H85.29V75.91l-17.77 29.43h-32.6l21.04 19.15-36.28 60.06.86.57 36.19-59.92 28.8 26.22v-30.19l17.96-15.38h-.25Z" class="cls-2"/><path d="M86.08 77.01c0 .61-.47 1.11-1.06 1.11s-1.06-.5-1.06-1.11.48-1.11 1.06-1.11 1.06.5 1.06 1.11" class="cls-2"/><path d="M112.44 139.5h-2.53v-.77h5.93v.77h-2.53v7.33h-.87v-7.33zM127.58 142.78c0-1.93-1.4-3.37-3.33-3.37s-3.31 1.44-3.31 3.37 1.4 3.37 3.31 3.37 3.33-1.44 3.33-3.37m-7.55 0c0-2.44 1.89-4.14 4.22-4.14s4.23 1.7 4.23 4.14-1.89 4.14-4.23 4.14-4.22-1.7-4.22-4.14M133.82 144.07v-5.34h.87v5.28c0 1.44.8 2.16 2.08 2.16s2.08-.71 2.08-2.16v-5.28h.87v5.34c0 1.89-1.28 2.86-2.95 2.86s-2.95-.96-2.95-2.86M147.32 143.94c1.86 0 2.55-.94 2.55-2.22s-.7-2.23-2.55-2.23h-.93v4.44h.93Zm3.54 2.89h-1.03l-1.58-2.22c-.28.05-.58.07-.87.07h-.98v2.14h-.87v-8.1h1.85c2.25 0 3.41 1.24 3.41 2.99 0 1.21-.58 2.17-1.72 2.62l1.79 2.49ZM156.44 138.73h.88v8.1h-.88zM162.42 145.28l.73-.38c.39.68.96 1.26 2.12 1.26.96 0 1.71-.52 1.71-1.38s-.52-1.24-1.55-1.69l-.65-.3c-1.17-.52-1.81-1.08-1.81-2.22s.93-1.94 2.17-1.94c1.1 0 1.79.5 2.22 1.22l-.7.43c-.31-.5-.75-.88-1.52-.88s-1.31.46-1.31 1.15.39 1.04 1.31 1.45l.65.3c1.37.6 2.07 1.26 2.07 2.48 0 1.33-1.08 2.14-2.55 2.14-1.57 0-2.43-.79-2.87-1.64M173.24 138.64h.12l3.82 4.7 3.8-4.7h.13v8.19h-.85v-5.35c0-.37.04-.93.04-.93s-.32.52-.58.85l-2.49 3.09h-.14l-2.46-3.09c-.27-.32-.59-.85-.59-.85s.05.56.05.93v5.35h-.85v-8.19ZM109.54 128.77l.55-.29c.29.52.73.96 1.61.96.73 0 1.3-.4 1.3-1.05s-.4-.94-1.18-1.29l-.5-.23c-.89-.4-1.38-.83-1.38-1.69s.71-1.48 1.65-1.48c.84 0 1.36.38 1.69.93l-.54.33c-.24-.38-.57-.67-1.16-.67-.62 0-1 .35-1 .88s.29.79 1 1.11l.5.23c1.04.46 1.57.96 1.57 1.89 0 1.02-.82 1.63-1.94 1.63-1.2 0-1.85-.6-2.18-1.25M117.81 123.78h.67v6.17h-.67zM123.99 125.66c-.17-.21-.43-.57-.43-.57s.06.44.06.7v4.16h-.63v-6.23h.11l3.74 4.35c.17.21.43.57.43.57s-.05-.43-.05-.7v-4.16h.62v6.23h-.11l-3.74-4.35ZM131.96 126.87c0-1.86 1.4-3.16 3.22-3.16.9 0 1.67.25 2.18.8l-.45.44c-.4-.42-.96-.65-1.73-.65-1.47 0-2.53 1.1-2.53 2.57s1.07 2.57 2.59 2.57c.86 0 1.46-.25 1.85-.56v-1.27h-1.86v-.58h2.49v2.15c-.46.45-1.3.85-2.48.85-1.87 0-3.28-1.3-3.28-3.16M145.26 128.35l-1.11-2.74c-.12-.29-.24-.73-.24-.73s-.13.45-.25.73l-1.11 2.74h2.7Zm-1.4-4.63h.11l2.65 6.23h-.7l-.43-1.03h-3.17l-.42 1.03h-.65l2.6-6.23ZM151.97 127.85c1.41 0 1.93-.73 1.93-1.74s-.53-1.74-1.93-1.74h-.72v3.48h.72Zm-1.39-4.07H152c1.71 0 2.59.93 2.59 2.32s-.88 2.31-2.59 2.31h-.76v1.53h-.66v-6.17ZM164.11 126.87c0-1.47-1.07-2.57-2.53-2.57s-2.52 1.1-2.52 2.57 1.07 2.57 2.52 2.57 2.53-1.1 2.53-2.57m-5.74 0c0-1.86 1.44-3.16 3.21-3.16s3.22 1.3 3.22 3.16-1.44 3.16-3.22 3.16-3.21-1.3-3.21-3.16M170.29 127.75c1.42 0 1.94-.72 1.94-1.69s-.53-1.7-1.94-1.7h-.71v3.38h.71Zm2.69 2.2h-.78l-1.21-1.69a3.6 3.6 0 0 1-.66.05h-.75v1.63h-.66v-6.17h1.41c1.71 0 2.6.94 2.6 2.28 0 .93-.44 1.65-1.31 1.99l1.36 1.9ZM177.17 123.78h3.81v.58h-3.15v2.9h2.81v.57h-2.81v1.54h3.28v.58h-3.94v-6.17zM115.21 161.63l-1.45-3.6c-.16-.38-.31-.96-.31-.96s-.17.58-.33.96l-1.45 3.6h3.54Zm-1.84-6.08h.15l3.48 8.18h-.92l-.56-1.36h-4.16l-.54 1.36h-.86l3.41-8.18ZM140.11 161.63l-1.45-3.6c-.16-.38-.31-.96-.31-.96s-.17.58-.33.96l-1.45 3.6h3.54Zm-1.84-6.08h.15l3.48 8.18h-.92l-.56-1.36h-4.16l-.54 1.36h-.86l3.41-8.18ZM148.9 160.84c1.86 0 2.55-.94 2.55-2.21s-.7-2.23-2.55-2.23h-.93v4.44h.93Zm3.53 2.89h-1.03l-1.58-2.21c-.28.05-.58.07-.87.07h-.98v2.14h-.87v-8.1h1.85c2.25 0 3.41 1.24 3.41 2.99 0 1.21-.58 2.17-1.72 2.62l1.79 2.49ZM159.86 162.96c2.43 0 3.59-1.35 3.59-3.28s-1.16-3.27-3.59-3.27h-1.06v6.55h1.06Zm-1.93-7.33h2c2.74 0 4.45 1.6 4.45 4.05s-1.69 4.05-4.45 4.05h-2v-8.1ZM168.88 162.18l.73-.38c.39.68.96 1.26 2.12 1.26.96 0 1.71-.52 1.71-1.38s-.52-1.24-1.55-1.69l-.65-.3c-1.17-.52-1.81-1.08-1.81-2.22s.93-1.94 2.17-1.94c1.1 0 1.79.5 2.22 1.22l-.7.43c-.31-.5-.75-.88-1.52-.88-.81 0-1.31.46-1.31 1.15s.39 1.04 1.31 1.45l.65.3c1.37.6 2.07 1.26 2.07 2.48 0 1.33-1.08 2.14-2.55 2.14-1.57 0-2.43-.79-2.87-1.64M120.59 155.63h.93l1.73 5.39c.11.36.23.88.23.88s.13-.54.27-.88l2.14-5.48h.15l2.14 5.48c.13.35.27.88.27.88s.12-.54.23-.88l1.72-5.39h.88l-2.71 8.18h-.15l-2.21-5.76c-.13-.33-.24-.8-.24-.8s-.12.46-.26.8l-2.25 5.76h-.15l-2.72-8.18ZM109.68 178.9l2.47-2.5c.81-.82 1.29-1.42 1.29-2.17 0-.84-.5-1.25-1.19-1.25-.74 0-1.25.49-1.52 1.38l-.78-.24c.29-1.24 1.17-2 2.29-2 1.29 0 2.08.84 2.08 2.08 0 .93-.61 1.75-1.48 2.64l-.92.93c-.22.23-.63.47-.63.47s.45-.04.68-.04h2.52v.82h-4.79v-.12ZM120.01 175.62c0-2.05 1.5-3.51 3.21-3.51s3.22 1.46 3.22 3.51-1.5 3.51-3.22 3.51-3.21-1.5-3.21-3.51Zm5.54 0c0-1.58-1.03-2.66-2.33-2.66s-2.31 1.08-2.31 2.66 1.01 2.66 2.31 2.66 2.33-1.12 2.33-2.66ZM131.74 178.9l2.47-2.5c.81-.82 1.29-1.42 1.29-2.17 0-.84-.5-1.25-1.19-1.25-.74 0-1.25.49-1.52 1.38l-.78-.24c.29-1.24 1.17-2 2.29-2 1.29 0 2.08.84 2.08 2.08 0 .93-.61 1.75-1.48 2.64l-.92.93c-.22.23-.63.47-.63.47s.45-.04.68-.04h2.52v.82h-4.79v-.12ZM147.5 177.94v.8h-.91v1.55h-.85v-1.55h-3.92v-.46l4.65-6.19h.12v5.85h.91Zm-1.76-3.06c0-.28.04-.72.04-.72s-.19.32-.36.57l-2.02 2.77c-.18.24-.44.49-.44.49s.32-.04.58-.04h2.2v-3.06ZM23.46 14.28c.78.5 1.39 1.21 1.83 2.11.45.91.67 1.93.67 3.07s-.22 2.16-.67 3.07c-.45.9-1.06 1.61-1.83 2.11-.78.5-1.65.76-2.62.76s-1.85-.25-2.63-.76c-.79-.5-1.4-1.21-1.85-2.11-.45-.91-.67-1.93-.67-3.07s.22-2.16.67-3.07c.45-.9 1.06-1.61 1.85-2.11.79-.5 1.66-.76 2.63-.76s1.84.25 2.62.76Zm-4.56 1.19c-.57.37-1.01.89-1.34 1.58-.32.69-.48 1.49-.48 2.41s.16 1.71.48 2.4c.32.69.77 1.22 1.34 1.59.57.37 1.21.55 1.94.55s1.35-.19 1.92-.56c.57-.37 1.01-.9 1.34-1.59.32-.69.48-1.48.48-2.39s-.16-1.72-.48-2.41c-.32-.69-.77-1.21-1.34-1.58-.57-.37-1.21-.55-1.92-.55s-1.37.18-1.94.55ZM35.02 16.23v9.03h-1.35v-2.12c-.21.73-.58 1.3-1.11 1.69-.53.39-1.14.58-1.85.58-.94 0-1.7-.34-2.28-1.01-.58-.67-.88-1.64-.88-2.9v-5.27h1.35v5.12c0 .9.21 1.59.62 2.08.42.49.98.73 1.69.73s1.34-.27 1.78-.8c.45-.53.67-1.31.67-2.33v-4.8h1.35ZM41.08 23.95v1.32h-1.01c-.83 0-1.45-.22-1.86-.66-.41-.44-.62-1.17-.62-2.2v-4.87h-1.22v-1.3h1.22v-2.25h1.36v2.25h2.11v1.3h-2.11v4.9c0 .58.1.98.29 1.19.19.21.53.32 1 .32h.83ZM47.49 16.92c.56.53.9 1.25 1.02 2.15h-1.29c-.06-.54-.26-.98-.6-1.32s-.8-.52-1.37-.52c-.48 0-.86.13-1.13.39-.27.26-.41.61-.41 1.04 0 .33.09.6.27.8.18.2.41.36.68.46.27.1.65.22 1.12.34.6.15 1.09.31 1.46.47.37.16.69.41.95.77.26.35.39.82.39 1.41 0 .74-.25 1.33-.75 1.79-.5.46-1.16.69-2 .69-.97 0-1.76-.26-2.37-.77-.61-.52-.97-1.23-1.08-2.16h1.31c.05.55.26.99.65 1.33.38.34.88.51 1.51.51.46 0 .83-.13 1.09-.39.26-.26.39-.61.39-1.04 0-.35-.09-.63-.28-.84-.19-.21-.42-.37-.7-.48a11.8 11.8 0 0 0-1.14-.35c-.6-.15-1.09-.31-1.45-.46-.36-.15-.67-.4-.92-.73-.25-.33-.38-.79-.38-1.36 0-.76.25-1.37.76-1.83.5-.47 1.19-.7 2.06-.7.92 0 1.66.27 2.22.8ZM54.28 23.95v1.32h-1.01c-.83 0-1.45-.22-1.86-.66-.41-.44-.62-1.17-.62-2.2v-4.87h-1.22v-1.3h1.22v-2.25h1.36v2.25h2.11v1.3h-2.11v4.9c0 .58.1.98.29 1.19.19.21.53.32 1 .32h.83ZM61.28 16.78c.55.44.93 1.03 1.15 1.76v-2.3h1.35v9.03h-1.35v-2.3c-.22.73-.6 1.32-1.15 1.76-.55.44-1.22.66-2.01.66-.72 0-1.36-.19-1.93-.56-.56-.37-1.01-.91-1.33-1.6-.32-.7-.48-1.52-.48-2.46s.16-1.77.48-2.47c.32-.7.76-1.24 1.33-1.61a3.44 3.44 0 0 1 1.93-.56c.79 0 1.46.22 2.01.66Zm-3.62 1.55c-.5.59-.75 1.4-.75 2.43s.25 1.84.75 2.43c.5.59 1.16.88 2 .88.53 0 1.01-.14 1.43-.41.42-.27.75-.66.99-1.16.24-.5.36-1.08.36-1.74s-.12-1.24-.36-1.74-.57-.89-.99-1.16c-.42-.27-.9-.4-1.43-.4-.83 0-1.5.29-2 .88ZM72.52 17.1c.58.67.88 1.65.88 2.92v5.25h-1.35v-5.12c0-.9-.21-1.59-.62-2.07-.42-.48-.98-.72-1.69-.72s-1.34.27-1.78.8c-.45.53-.67 1.31-.67 2.33v4.79h-1.35v-9.03h1.35v2.14c.21-.73.58-1.3 1.11-1.69a3.01 3.01 0 0 1 1.83-.59c.95 0 1.72.34 2.3 1.01ZM80.82 16.78c.55.44.93 1.03 1.15 1.76v-5.45h1.35v12.18h-1.35v-2.3c-.22.73-.6 1.32-1.15 1.76-.55.44-1.22.66-2.01.66-.72 0-1.36-.19-1.93-.56-.56-.37-1.01-.91-1.33-1.6-.32-.7-.48-1.52-.48-2.46s.16-1.77.48-2.47c.32-.7.76-1.24 1.33-1.61a3.44 3.44 0 0 1 1.93-.56c.79 0 1.46.22 2.01.66Zm-3.62 1.55c-.5.59-.75 1.4-.75 2.43s.25 1.84.75 2.43c.5.59 1.16.88 2 .88.53 0 1.01-.14 1.43-.41.42-.27.75-.66.99-1.16.24-.5.36-1.08.36-1.74s-.12-1.24-.36-1.74-.57-.89-.99-1.16c-.42-.27-.9-.4-1.43-.4-.83 0-1.5.29-2 .88ZM85.48 12.92c.17-.17.39-.26.67-.26s.5.09.67.26c.17.17.25.39.25.67s-.08.5-.25.67c-.17.17-.39.26-.67.26s-.5-.08-.67-.26c-.17-.17-.25-.39-.25-.67s.08-.5.25-.67Zm1.34 3.31v9.03h-1.35v-9.03h1.35ZM95.57 17.1c.58.67.88 1.65.88 2.92v5.25H95.1v-5.12c0-.9-.21-1.59-.62-2.07-.42-.48-.98-.72-1.69-.72s-1.34.27-1.78.8c-.45.53-.67 1.31-.67 2.33v4.79h-1.35v-9.03h1.35v2.14c.21-.73.58-1.3 1.11-1.69a3.01 3.01 0 0 1 1.83-.59c.95 0 1.72.34 2.3 1.01ZM103.87 16.78c.55.44.93 1.03 1.15 1.76v-2.3h1.35v9.18c0 .83-.16 1.57-.47 2.22-.32.65-.76 1.15-1.34 1.51-.57.36-1.24.54-2 .54-1.1 0-1.99-.29-2.69-.88-.69-.59-1.13-1.38-1.32-2.38h1.34c.16.6.46 1.08.9 1.42.44.35 1.01.52 1.7.52.73 0 1.34-.26 1.82-.78s.72-1.25.72-2.18v-2.45c-.22.73-.6 1.32-1.15 1.76-.55.44-1.22.66-2.01.66-.72 0-1.36-.19-1.93-.56-.56-.37-1.01-.91-1.33-1.6-.32-.7-.48-1.52-.48-2.46s.16-1.77.48-2.47c.32-.7.76-1.24 1.33-1.61a3.44 3.44 0 0 1 1.93-.56c.79 0 1.46.22 2.01.66Zm-3.62 1.55c-.5.59-.75 1.4-.75 2.43s.25 1.84.75 2.43c.5.59 1.16.88 2 .88.53 0 1.01-.14 1.43-.41.42-.27.75-.66.99-1.16.24-.5.36-1.08.36-1.74s-.12-1.24-.36-1.74-.57-.89-.99-1.16c-.42-.27-.9-.4-1.43-.4-.83 0-1.5.29-2 .88ZM118.32 22.59h-4.6l-.88 2.68h-1.45l3.87-11.39h1.53l3.86 11.39h-1.45l-.88-2.68Zm-.39-1.17-1.91-5.86-1.91 5.86h3.83ZM125.9 23.95v1.32h-1.01c-.83 0-1.45-.22-1.86-.66-.41-.44-.62-1.17-.62-2.2v-4.87h-1.22v-1.3h1.22v-2.25h1.36v2.25h2.11v1.3h-2.11v4.9c0 .58.1.98.29 1.19.19.21.53.32 1 .32h.83ZM131.43 23.95v1.32h-1.01c-.83 0-1.45-.22-1.86-.66-.41-.44-.62-1.17-.62-2.2v-4.87h-1.22v-1.3h1.22v-2.25h1.36v2.25h2.11v1.3h-2.11v4.9c0 .58.1.98.29 1.19.19.21.53.32 1 .32h.83ZM135.6 16.6c.51-.35 1.13-.52 1.84-.52v1.63h-.42c-.76 0-1.38.22-1.87.65-.48.43-.73 1.15-.73 2.15v4.76h-1.35v-9.03h1.35v1.83c.27-.63.66-1.11 1.17-1.46ZM144.12 16.78c.55.44.93 1.03 1.15 1.76v-2.3h1.35v9.03h-1.35v-2.3c-.22.73-.6 1.32-1.15 1.76-.55.44-1.22.66-2.01.66-.72 0-1.36-.19-1.93-.56-.56-.37-1.01-.91-1.33-1.6-.32-.7-.48-1.52-.48-2.46s.16-1.77.48-2.47c.32-.7.76-1.24 1.33-1.61a3.44 3.44 0 0 1 1.93-.56c.79 0 1.46.22 2.01.66Zm-3.62 1.55c-.5.59-.75 1.4-.75 2.43s.25 1.84.75 2.43c.5.59 1.16.88 2 .88.53 0 1.01-.14 1.43-.41.42-.27.75-.66.99-1.16.24-.5.36-1.08.36-1.74s-.12-1.24-.36-1.74-.57-.89-.99-1.16c-.42-.27-.9-.4-1.43-.4-.83 0-1.5.29-2 .88ZM154.96 17.04c.68.61 1.1 1.44 1.26 2.47h-1.42c-.1-.65-.37-1.15-.81-1.52-.44-.37-.99-.55-1.64-.55-.47 0-.91.12-1.3.36s-.7.61-.94 1.11c-.24.5-.36 1.12-.36 1.85s.12 1.35.36 1.85.55.87.94 1.11c.39.24.82.36 1.3.36.65 0 1.2-.19 1.64-.56.44-.37.71-.88.81-1.53h1.42c-.16 1.04-.58 1.87-1.26 2.48s-1.54.91-2.58.91c-.78 0-1.47-.19-2.08-.56-.6-.37-1.08-.91-1.42-1.6-.34-.7-.51-1.52-.51-2.46s.17-1.77.51-2.47c.34-.7.81-1.24 1.42-1.61.6-.37 1.3-.56 2.08-.56 1.04 0 1.9.31 2.58.92ZM161.88 23.95v1.32h-1.01c-.83 0-1.45-.22-1.86-.66-.41-.44-.62-1.17-.62-2.2v-4.87h-1.22v-1.3h1.22v-2.25h1.36v2.25h2.11v1.3h-2.11v4.9c0 .58.1.98.29 1.19.19.21.53.32 1 .32h.83ZM163.54 12.92c.17-.17.39-.26.67-.26s.5.09.67.26c.17.17.25.39.25.67s-.08.5-.25.67c-.17.17-.39.26-.67.26s-.5-.08-.67-.26c-.17-.17-.25-.39-.25-.67s.08-.5.25-.67Zm1.33 3.31v9.03h-1.35v-9.03h1.35ZM172.83 16.68c.62.37 1.1.91 1.45 1.61.35.7.53 1.52.53 2.47s-.18 1.76-.53 2.46c-.35.7-.84 1.23-1.45 1.6-.62.37-1.32.56-2.1.56s-1.48-.19-2.1-.56c-.62-.37-1.11-.91-1.46-1.6-.36-.7-.53-1.52-.53-2.46s.18-1.77.53-2.47c.36-.7.84-1.24 1.46-1.61.62-.37 1.32-.56 2.1-.56s1.48.19 2.1.56Zm-3.44 1.12c-.41.24-.74.61-.99 1.11-.25.5-.38 1.12-.38 1.85s.13 1.34.38 1.83c.25.5.58.87.99 1.11.41.24.86.36 1.34.36s.93-.12 1.34-.36c.41-.24.74-.61.99-1.11.25-.5.38-1.11.38-1.83s-.13-1.35-.38-1.85-.58-.87-.99-1.11c-.41-.24-.86-.36-1.34-.36s-.93.12-1.34.36ZM183.17 17.1c.58.67.88 1.65.88 2.92v5.25h-1.35v-5.12c0-.9-.21-1.59-.62-2.07-.42-.48-.98-.72-1.69-.72s-1.34.27-1.78.8c-.45.53-.67 1.31-.67 2.33v4.79h-1.35v-9.03h1.35v2.14c.21-.73.58-1.3 1.11-1.69a3.01 3.01 0 0 1 1.83-.59c.95 0 1.72.34 2.3 1.01ZM62.06 32.7v3.97h3.98v1.15h-3.98v4.05h4.42v1.22h-5.77v-11.6h5.77v1.22h-4.42ZM72.91 43.08l-2.12-3.46-1.91 3.46h-1.5l2.67-4.66-2.69-4.38h1.54l2.06 3.36 1.88-3.36h1.5l-2.66 4.54 2.76 4.49H72.9ZM82.14 34.49c.56.37 1.01.91 1.33 1.61.32.7.48 1.52.48 2.47s-.16 1.76-.48 2.46c-.32.7-.76 1.23-1.33 1.6-.56.37-1.21.56-1.93.56-.79 0-1.46-.22-2.01-.67-.55-.44-.93-1.03-1.14-1.75v6.58h-1.35V34.04h1.35v2.3c.21-.72.59-1.31 1.14-1.75.55-.44 1.22-.67 2.01-.67.72 0 1.37.19 1.93.56Zm-3.74 1.18c-.43.27-.76.66-.99 1.16-.24.5-.36 1.09-.36 1.74s.12 1.24.36 1.74.57.89.99 1.16c.43.27.9.41 1.42.41.84 0 1.51-.29 2.01-.88.5-.59.75-1.4.75-2.43s-.25-1.84-.75-2.43c-.5-.59-1.17-.88-2.01-.88-.52 0-1 .13-1.42.4ZM93.15 38.88h-6.51c.03 1.03.29 1.8.79 2.32.5.52 1.11.77 1.83.77.65 0 1.2-.18 1.64-.55.44-.37.71-.86.81-1.47h1.44c-.1.63-.32 1.18-.66 1.68-.34.49-.78.88-1.33 1.15-.54.27-1.16.41-1.84.41-.78 0-1.47-.19-2.08-.56-.6-.37-1.08-.91-1.42-1.6-.34-.7-.51-1.52-.51-2.46s.17-1.77.51-2.47c.34-.7.81-1.24 1.42-1.61.6-.37 1.3-.56 2.08-.56s1.48.19 2.07.56c.59.37 1.04.87 1.35 1.5.31.63.47 1.32.47 2.07 0 .32-.02.59-.06.82Zm-1.61-2.4c-.23-.45-.54-.78-.93-1-.4-.22-.83-.33-1.29-.33-.74 0-1.36.26-1.87.77s-.78 1.26-.82 2.25h5.21c.03-.67-.07-1.23-.3-1.68ZM97.49 34.42c.51-.35 1.13-.52 1.84-.52v1.63h-.42c-.76 0-1.38.22-1.87.65-.48.43-.73 1.15-.73 2.15v4.76h-1.35v-9.03h1.35v1.83c.27-.63.66-1.11 1.17-1.46ZM100.68 30.73c.17-.17.39-.26.67-.26s.5.09.67.26c.17.17.25.39.25.67s-.08.5-.25.67c-.17.17-.39.26-.67.26s-.5-.08-.67-.26c-.17-.17-.25-.39-.25-.67s.08-.5.25-.67Zm1.34 3.32v9.03h-1.35v-9.03h1.35ZM111.62 38.88h-6.51c.03 1.03.29 1.8.79 2.32.5.52 1.11.77 1.83.77.65 0 1.2-.18 1.64-.55.44-.37.71-.86.81-1.47h1.44c-.1.63-.32 1.18-.66 1.68-.34.49-.78.88-1.33 1.15-.54.27-1.16.41-1.84.41-.78 0-1.47-.19-2.08-.56-.6-.37-1.08-.91-1.42-1.6-.34-.7-.51-1.52-.51-2.46s.17-1.77.51-2.47c.34-.7.81-1.24 1.42-1.61.6-.37 1.3-.56 2.08-.56s1.48.19 2.07.56c.59.37 1.04.87 1.35 1.5.31.63.47 1.32.47 2.07 0 .32-.02.59-.06.82Zm-1.61-2.4c-.23-.45-.54-.78-.93-1-.4-.22-.83-.33-1.29-.33-.74 0-1.36.26-1.87.77-.5.51-.78 1.26-.82 2.25h5.21c.03-.67-.07-1.23-.3-1.68ZM120.03 34.91c.58.67.88 1.65.88 2.92v5.25h-1.35v-5.12c0-.9-.21-1.59-.62-2.07-.42-.48-.98-.72-1.69-.72s-1.34.27-1.78.8c-.45.53-.67 1.31-.67 2.33v4.79h-1.35v-9.03h1.35v2.14c.21-.73.58-1.3 1.11-1.69a3.01 3.01 0 0 1 1.83-.59c.95 0 1.72.34 2.3 1.01ZM129.17 34.85c.68.61 1.1 1.44 1.26 2.47h-1.42c-.1-.65-.37-1.15-.81-1.52-.44-.37-.99-.55-1.64-.55-.47 0-.91.12-1.3.36s-.7.61-.94 1.11c-.24.5-.36 1.12-.36 1.85s.12 1.35.36 1.85.55.87.94 1.11c.39.24.82.36 1.3.36.65 0 1.2-.19 1.64-.56.44-.37.71-.88.81-1.53h1.42c-.16 1.04-.58 1.87-1.26 2.48s-1.54.91-2.58.91c-.78 0-1.47-.19-2.08-.56-.6-.37-1.08-.91-1.42-1.6-.34-.7-.51-1.52-.51-2.46s.17-1.77.51-2.47c.34-.7.81-1.24 1.42-1.61.6-.37 1.3-.56 2.08-.56 1.04 0 1.9.31 2.58.92ZM139.63 38.88h-6.51c.03 1.03.29 1.8.79 2.32.5.52 1.11.77 1.83.77.65 0 1.2-.18 1.64-.55.44-.37.71-.86.81-1.47h1.44c-.1.63-.32 1.18-.66 1.68-.34.49-.78.88-1.33 1.15-.54.27-1.16.41-1.84.41-.78 0-1.47-.19-2.08-.56-.6-.37-1.08-.91-1.42-1.6-.34-.7-.51-1.52-.51-2.46s.17-1.77.51-2.47c.34-.7.81-1.24 1.42-1.61.6-.37 1.3-.56 2.08-.56s1.48.19 2.07.56c.59.37 1.04.87 1.35 1.5.31.63.47 1.32.47 2.07 0 .32-.02.59-.06.82Zm-1.6-2.4c-.23-.45-.54-.78-.93-1-.4-.22-.83-.33-1.29-.33-.74 0-1.36.26-1.87.77-.5.51-.78 1.26-.82 2.25h5.21c.03-.67-.07-1.23-.3-1.68Z" class="cls-3"/></svg>